<?xml version="1.0" encoding="utf-8"?>
<!-- Generator: Adobe Illustrator 24.3.0, SVG Export Plug-In . SVG Version: 6.00 Build 0)  -->
<svg version="1.1" id="Layer_1" xmlns="http://www.w3.org/2000/svg" xmlns:xlink="http://www.w3.org/1999/xlink" x="0px" y="0px"
	 viewBox="0 0 600 600" style="enable-background:new 0 0 600 600;" xml:space="preserve">
<style type="text/css">
	.st0{fill:#064A9D;}
	.st1{fill:#FFFFFF;}
</style>
<g>
	<path class="st0" d="M30.21,592c-2.08-0.87-4.2-1.66-6.25-2.61c-13.82-6.41-19.61-21.42-13.6-36.28
		c10.88-26.93,22.03-53.76,33.06-80.63c2.98-7.25,5.86-14.54,8.92-21.75c5.16-12.17,14.3-18.51,27.62-18.53
		c10.13-0.01,20.26-0.06,30.39,0.02c6.58,0.05,10.37,3.32,10.5,8.79c0.14,5.69-3.84,9.44-10.52,9.53
		c-9.94,0.13-19.88,0.19-29.81-0.02c-5.71-0.12-9.25,2.11-11.44,7.49c-13.73,33.82-27.66,67.56-41.44,101.36
		c-3.43,8.4,0.3,13.99,9.29,14.27c1.53,0.05,3.06,0.01,4.59,0.01c172.97,0,345.93,0,518.9,0c1.53,0,3.06,0.04,4.59-0.02
		c8.61-0.32,12.46-5.96,9.27-13.97c-5.08-12.79-10.37-25.49-15.58-38.22c-8.34-20.34-16.69-40.66-25.04-60.99
		c-3.79-9.23-4.75-9.86-14.94-9.86c-8.98,0-17.97,0.06-26.95-0.02c-7.21-0.07-11.16-3.57-11.04-9.54c0.12-5.69,3.92-8.78,11.02-8.81
		c10.32-0.05,20.64-0.13,30.96,0.03c12.29,0.19,21.34,5.91,26.06,17.25c14.55,34.93,28.82,69.98,43.13,105.01
		c1.14,2.8,1.7,5.84,2.53,8.77c0,0.77,0,1.53,0,2.3c-2.28,13.49-9.85,22.35-22.94,26.43C391.07,592,210.64,592,30.21,592z"/>
	<path class="st0" d="M457.96,3.7c8.43,2.26,17.15,3.78,25.24,6.91c56.95,22.08,80.66,89.52,49.95,142.39
		c-25.26,43.48-51.02,86.67-76.6,129.97c-5.63,9.53-13.04,9.48-18.71-0.12c-25.54-43.31-51.32-86.5-76.48-130.03
		C326.15,91.89,363.65,14.8,433.04,4.75c1.07-0.16,2.09-0.69,3.14-1.05C443.44,3.7,450.7,3.7,457.96,3.7z M447.2,262.19
		c0.7-0.86,1.26-1.38,1.63-2.01c23.2-39.35,47.1-78.31,69.39-118.17c29.65-53.03-9.09-119.52-69.27-119.85
		c-31.41-0.18-55.93,13.3-71.61,40.56c-15.65,27.21-15.15,55.24,0.63,82.42c21.87,37.69,44.22,75.11,66.37,112.63
		C445.19,259.19,446.14,260.55,447.2,262.19z"/>
	<path class="st1" d="M571.5,592c13.08-4.07,20.66-12.94,22.94-26.43c0,8.81,0,17.62,0,26.43C586.79,592,579.14,592,571.5,592z"/>
	<path class="st0" d="M218.03,535.34c0-2.5,0-4.57,0-6.64c0-32.17,0.5-64.35-0.18-96.51c-0.43-20.36,16.01-31.17,30.85-31
		c34.59,0.38,69.19,0.1,103.78,0.13c19.5,0.02,31.12,11.58,31.13,30.96c0.03,32.17,0.01,64.34,0.01,96.52c0,2.06,0,4.13,0,6.55
		c18.21,0,35.9,0,54.58,0c0-2.1,0-4.28,0-6.47c0-66.45,0-132.9,0-199.35c0-9.5,2.8-13.77,9.02-13.82c6.27-0.05,9.26,4.36,9.26,13.71
		c0.01,70.28,0.01,140.56,0,210.84c0,11.26-2.56,13.79-13.89,13.79c-94.61,0-189.21,0-283.82,0c-10.88,0-13.48-2.61-13.48-13.59
		c-0.01-131.37-0.01-262.74,0.01-394.11c0-19.54,11.51-31.4,30.78-31.44c46.83-0.1,93.65-0.03,140.48-0.03c1.15,0,2.3,0,3.43,0.13
		c4.93,0.56,7.63,3.66,8.03,8.3c0.41,4.7-2,8.17-6.65,9.45c-2.16,0.59-4.53,0.56-6.8,0.56c-45.49,0.03-90.98,0.01-136.46,0.03
		c-11.73,0-14.51,2.82-14.51,14.56c0,126.96,0,253.93,0,380.89c0,2.07,0,4.13,0,6.55C181.82,535.34,199.5,535.34,218.03,535.34z
		 M291.28,535.51c0-38.91,0-77.23,0-115.87c-14.12,0-27.84-0.03-41.55,0.01c-10.05,0.03-13.38,3.36-13.38,13.36
		c-0.01,32.12-0.01,64.25-0.01,96.37c0,2,0,4,0,6.12C255.15,535.51,273.04,535.51,291.28,535.51z M364.76,535.4
		c0.22-0.79,0.48-1.32,0.49-1.84c0.03-34.61,0.08-69.22,0-103.83c-0.01-5.63-3.41-9.69-9.11-9.82c-15.2-0.36-30.41-0.12-45.83-0.12
		c0,38.78,0,77.1,0,115.62C328.66,535.4,346.69,535.4,364.76,535.4z"/>
	<path class="st0" d="M361.02,352.06c-9.36,0-18.73,0.07-28.09-0.02c-7.38-0.08-10.59-3.14-10.64-10.42
		c-0.11-17.62-0.1-35.23-0.01-52.85c0.04-7.4,3.18-10.6,10.41-10.63c19.11-0.09,38.22-0.09,57.33,0
		c7.14,0.03,10.43,3.39,10.47,10.68c0.09,17.42,0.08,34.85,0.01,52.27c-0.03,7.61-3.28,10.86-10.81,10.94
		C380.13,352.13,370.58,352.06,361.02,352.06z M381.88,296.75c-13.77,0-27.22,0-40.88,0c0,12.42,0,24.5,0,36.57
		c13.91,0,27.34,0,40.88,0C381.88,320.93,381.88,308.97,381.88,296.75z"/>
	<path class="st0" d="M240.5,278.12c9.55,0,19.11-0.08,28.66,0.03c6.97,0.08,10.13,3.19,10.17,10.22c0.1,17.8,0.1,35.6,0,53.41
		c-0.04,7.03-3.2,10.22-10.15,10.25c-19.3,0.09-38.59,0.1-57.89-0.01c-6.56-0.04-9.95-3.35-10-9.94c-0.14-17.99-0.14-35.99,0-53.98
		c0.05-6.61,3.42-9.86,9.98-9.95C221.02,278.02,230.76,278.12,240.5,278.12z M260.71,333.47c0-12.62,0-24.56,0-36.68
		c-13.79,0-27.2,0-40.69,0c0,12.46,0,24.53,0,36.68C233.77,333.47,247.05,333.47,260.71,333.47z"/>
	<path class="st0" d="M240.16,166.82c9.55,0,19.11-0.07,28.66,0.02c7.28,0.07,10.48,3.2,10.52,10.53c0.1,17.61,0.09,35.22,0,52.83
		c-0.04,7.4-3.09,10.6-10.39,10.65c-19.1,0.12-38.21,0.13-57.31-0.01c-7.17-0.05-10.34-3.43-10.38-10.79
		c-0.09-17.42-0.09-34.84,0-52.26c0.04-7.62,3.33-10.89,10.81-10.95C221.44,166.76,230.8,166.82,240.16,166.82z M260.8,185.64
		c-14.04,0-27.47,0-40.94,0c0,12.41,0,24.37,0,36.64c13.76,0,27.21,0,40.94,0C260.8,209.93,260.8,197.94,260.8,185.64z"/>
	<path class="st0" d="M340.53,222.67c7.12,0,13.21-0.09,19.29,0.02c6.7,0.13,10.8,3.82,10.64,9.36c-0.15,5.35-4.04,8.72-10.58,8.81
		c-8.97,0.12-17.94,0.13-26.91,0c-7.4-0.11-10.61-3.19-10.66-10.41c-0.11-17.79-0.11-35.57,0-53.36c0.04-6.4,3.67-10.23,9.12-10.21
		c5.39,0.02,8.97,3.84,9.05,10.34c0.16,12.81,0.06,25.63,0.06,38.44C340.53,217.73,340.53,219.79,340.53,222.67z"/>
	<path class="st0" d="M394.46,103.23c-0.02-29.22,23.53-52.96,52.69-53.12c28.87-0.15,53.02,23.84,53.16,52.82
		c0.14,29.26-23.98,53.5-53.15,53.4C417.93,156.24,394.48,132.6,394.46,103.23z M412.73,103.25c0.03,19.2,15.53,34.75,34.61,34.72
		c18.92-0.02,34.67-15.85,34.65-34.81c-0.03-18.98-15.82-34.76-34.74-34.71C428.15,68.5,412.7,84.07,412.73,103.25z"/>
</g>
</svg>
