<svg width="37" height="46" viewBox="0 0 37 46" fill="none" xmlns="http://www.w3.org/2000/svg">
<path fill-rule="evenodd" clip-rule="evenodd" d="M18.3333 45.8333C18.3333 45.8333 36.6667 32.0833 36.6667 18.3333C36.6667 13.471 34.7351 8.80788 31.297 5.36971C27.8588 1.93154 23.1956 0 18.3333 0C13.471 0 8.80788 1.93154 5.36971 5.36971C1.93154 8.80788 0 13.471 0 18.3333C0 32.0833 18.3333 45.8333 18.3333 45.8333ZM24.5833 18.2917C24.5833 22.0886 21.5053 25.1667 17.7083 25.1667C13.9114 25.1667 10.8333 22.0886 10.8333 18.2917C10.8333 14.4947 13.9114 11.4167 17.7083 11.4167C21.5053 11.4167 24.5833 14.4947 24.5833 18.2917Z" fill="white"/>
</svg>
